<?xml version="1.0" encoding="UTF-8" standalone="no"?>
<!-- Created with Inkscape (http://www.inkscape.org/) -->

<svg
   width="800"
   height="600"
   viewBox="0 0 211.66666 158.75"
   version="1.1"
   id="svg5"
   inkscape:version="1.1.2 (0a00cf5339, 2022-02-04)"
   sodipodi:docname="FourNodeTetrahedron.svg"
   inkscape:export-filename="/home/jaabell/Repositories/OpenSeesDocumentation/source/user/manual/model/elements/FourNodeTetrahedron.png"
   inkscape:export-xdpi="96"
   inkscape:export-ydpi="96"
   xmlns:inkscape="http://www.inkscape.org/namespaces/inkscape"
   xmlns:sodipodi="http://sodipodi.sourceforge.net/DTD/sodipodi-0.dtd"
   xmlns="http://www.w3.org/2000/svg"
   xmlns:svg="http://www.w3.org/2000/svg"
   xmlns:ns1="http://www.iki.fi/pav/software/textext/">
  <sodipodi:namedview
     id="namedview7"
     pagecolor="#ffffff"
     bordercolor="#666666"
     borderopacity="1.0"
     inkscape:pageshadow="2"
     inkscape:pageopacity="0.0"
     inkscape:pagecheckerboard="0"
     inkscape:document-units="mm"
     showgrid="false"
     units="px"
     inkscape:zoom="2.5620932"
     inkscape:cx="468.9525"
     inkscape:cy="495.10299"
     inkscape:window-width="2560"
     inkscape:window-height="1536"
     inkscape:window-x="0"
     inkscape:window-y="27"
     inkscape:window-maximized="1"
     inkscape:current-layer="layer1"
     inkscape:snap-center="true">
    <inkscape:grid
       type="xygrid"
       id="grid824" />
  </sodipodi:namedview>
  <defs
     id="defs2">
    <marker
       style="overflow:visible;"
       id="marker37530"
       refX="0.0"
       refY="0.0"
       orient="auto"
       inkscape:stockid="Arrow1Send"
       inkscape:isstock="true">
      <path
         transform="scale(0.2) rotate(180) translate(6,0)"
         style="fill-rule:evenodd;fill:context-stroke;stroke:context-stroke;stroke-width:1.0pt;"
         d="M 0.0,0.0 L 5.0,-5.0 L -12.5,0.0 L 5.0,5.0 L 0.0,0.0 z "
         id="path37528" />
    </marker>
    <marker
       style="overflow:visible;"
       id="Arrow1Send"
       refX="0.0"
       refY="0.0"
       orient="auto"
       inkscape:stockid="Arrow1Send"
       inkscape:isstock="true">
      <path
         transform="scale(0.2) rotate(180) translate(6,0)"
         style="fill-rule:evenodd;fill:context-stroke;stroke:context-stroke;stroke-width:1.0pt;"
         d="M 0.0,0.0 L 5.0,-5.0 L -12.5,0.0 L 5.0,5.0 L 0.0,0.0 z "
         id="path9771" />
    </marker>
  </defs>
  <g
     inkscape:label="Layer 1"
     inkscape:groupmode="layer"
     id="layer1">
    <path
       style="fill:none;stroke:#666666;stroke-width:0.79375;stroke-linecap:butt;stroke-linejoin:miter;stroke-miterlimit:4;stroke-dasharray:none;stroke-opacity:1;marker-end:url(#Arrow1Send)"
       d="M 8.9421399,113.66471 59.212973,142.76888"
       id="path9461"
       sodipodi:nodetypes="cc" />
    <path
       style="fill:none;stroke:#666666;stroke-width:0.79375;stroke-linecap:butt;stroke-linejoin:miter;stroke-miterlimit:4;stroke-dasharray:none;stroke-opacity:1;marker-end:url(#Arrow1Send)"
       d="M 8.9421399,113.66471 56.567141,92.49804"
       id="path10141"
       sodipodi:nodetypes="cc" />
    <path
       style="fill:none;stroke:#666666;stroke-width:0.79375;stroke-linecap:butt;stroke-linejoin:miter;stroke-miterlimit:4;stroke-dasharray:none;stroke-opacity:1;marker-end:url(#Arrow1Send)"
       d="m 8.9421399,113.66471 10e-7,-39.687503"
       id="path10162"
       sodipodi:nodetypes="cc" />
    <g
       transform="matrix(0.802219,0,0,0.802219,53.044998,145.66662)"
       ns1:version="1.8.1"
       ns1:texconverter="pdflatex"
       ns1:pdfconverter="inkscape"
       ns1:text="$x$"
       ns1:preamble="/home/jaabell/.config/inkscape/extensions/textext/default_packages.tex"
       ns1:scale="2.2740046718895663"
       ns1:alignment="middle center"
       ns1:stroke-to-path="0"
       ns1:inkscapeversion="1.1.2"
       ns1:jacobian_sqrt="0.802219"
       id="g10410"
       style="fill:#4d4d4d">
      <defs
         id="id-18e72cc3-a967-438b-a6e3-2e59b71c1e22">
        <g
           id="id-5545b9c2-23e8-4e17-a943-6c3b91f120be">
          <symbol
             overflow="visible"
             id="id-af89bc82-6175-43a2-a61b-16ef384fc879">
            <path
               style="stroke:none;stroke-width:0"
               d=""
               id="id-98c966c1-203a-4ec1-a1e7-294d54ab1b10" />
          </symbol>
          <symbol
             overflow="visible"
             id="id-26567c06-b130-4d19-ac0f-3739640b8553">
            <path
               style="stroke:none;stroke-width:0"
               d="M 3.328125,-3.015625 C 3.390625,-3.265625 3.625,-4.1875 4.3125,-4.1875 c 0.046875,0 0.296875,0 0.5,0.125 C 4.53125,-4 4.34375,-3.765625 4.34375,-3.515625 c 0,0.15625 0.109375,0.34375 0.375,0.34375 0.21875,0 0.53125,-0.171875 0.53125,-0.578125 0,-0.515625 -0.578125,-0.65625 -0.921875,-0.65625 -0.578125,0 -0.921875,0.53125 -1.046875,0.75 -0.25,-0.65625 -0.78125,-0.75 -1.078125,-0.75 -1.03125,0 -1.609375,1.28125 -1.609375,1.53125 0,0.109375 0.109375,0.109375 0.125,0.109375 0.078125,0 0.109375,-0.03125 0.125,-0.109375 0.34375,-1.0625 1,-1.3125 1.34375,-1.3125 0.1875,0 0.53125,0.09375 0.53125,0.671875 0,0.3125 -0.171875,0.96875 -0.53125,2.375 -0.15625,0.609375 -0.515625,1.03125 -0.953125,1.03125 -0.0625,0 -0.28125,0 -0.5,-0.125 0.25,-0.0625 0.46875,-0.265625 0.46875,-0.546875 0,-0.265625 -0.21875,-0.34375 -0.359375,-0.34375 -0.3125,0 -0.546875,0.25 -0.546875,0.578125 0,0.453125 0.484375,0.65625 0.921875,0.65625 0.671875,0 1.03125,-0.703125 1.046875,-0.75 0.125,0.359375 0.484375,0.75 1.078125,0.75 1.03125,0 1.59375,-1.28125 1.59375,-1.53125 0,-0.109375 -0.078125,-0.109375 -0.109375,-0.109375 -0.09375,0 -0.109375,0.046875 -0.140625,0.109375 -0.328125,1.078125 -1,1.3125 -1.3125,1.3125 -0.390625,0 -0.546875,-0.3125 -0.546875,-0.65625 0,-0.21875 0.046875,-0.4375 0.15625,-0.875 z m 0,0"
               id="id-119638eb-ae29-4cca-90af-95ac373046d6" />
          </symbol>
        </g>
      </defs>
      <g
         id="id-f6f14f0b-eb14-44b4-9b65-d20092b25dc8"
         transform="translate(-149.009,-130.359)"
         style="fill:#4d4d4d">
        <g
           style="fill:#4d4d4d;fill-opacity:1"
           id="id-8dea49d2-5d42-4ca3-ad16-e126ed42bb4f">
          <g
             transform="translate(148.712,134.765)"
             id="g10406"
             style="fill:#4d4d4d">
            <path
               style="fill:#4d4d4d;stroke:none;stroke-width:0"
               d="M 3.328125,-3.015625 C 3.390625,-3.265625 3.625,-4.1875 4.3125,-4.1875 c 0.046875,0 0.296875,0 0.5,0.125 C 4.53125,-4 4.34375,-3.765625 4.34375,-3.515625 c 0,0.15625 0.109375,0.34375 0.375,0.34375 0.21875,0 0.53125,-0.171875 0.53125,-0.578125 0,-0.515625 -0.578125,-0.65625 -0.921875,-0.65625 -0.578125,0 -0.921875,0.53125 -1.046875,0.75 -0.25,-0.65625 -0.78125,-0.75 -1.078125,-0.75 -1.03125,0 -1.609375,1.28125 -1.609375,1.53125 0,0.109375 0.109375,0.109375 0.125,0.109375 0.078125,0 0.109375,-0.03125 0.125,-0.109375 0.34375,-1.0625 1,-1.3125 1.34375,-1.3125 0.1875,0 0.53125,0.09375 0.53125,0.671875 0,0.3125 -0.171875,0.96875 -0.53125,2.375 -0.15625,0.609375 -0.515625,1.03125 -0.953125,1.03125 -0.0625,0 -0.28125,0 -0.5,-0.125 0.25,-0.0625 0.46875,-0.265625 0.46875,-0.546875 0,-0.265625 -0.21875,-0.34375 -0.359375,-0.34375 -0.3125,0 -0.546875,0.25 -0.546875,0.578125 0,0.453125 0.484375,0.65625 0.921875,0.65625 0.671875,0 1.03125,-0.703125 1.046875,-0.75 0.125,0.359375 0.484375,0.75 1.078125,0.75 1.03125,0 1.59375,-1.28125 1.59375,-1.53125 0,-0.109375 -0.078125,-0.109375 -0.109375,-0.109375 -0.09375,0 -0.109375,0.046875 -0.140625,0.109375 -0.328125,1.078125 -1,1.3125 -1.3125,1.3125 -0.390625,0 -0.546875,-0.3125 -0.546875,-0.65625 0,-0.21875 0.046875,-0.4375 0.15625,-0.875 z m 0,0"
               id="id-518ccff3-dbb9-4aa2-b54b-3df5193d0f58" />
          </g>
        </g>
      </g>
    </g>
    <g
       transform="matrix(0.802219,0,0,0.802219,2.3593739,73.602207)"
       ns1:version="1.8.1"
       ns1:texconverter="pdflatex"
       ns1:pdfconverter="inkscape"
       ns1:text="$z$"
       ns1:preamble="/home/jaabell/.config/inkscape/extensions/textext/default_packages.tex"
       ns1:scale="2.2740046718895663"
       ns1:alignment="middle center"
       ns1:stroke-to-path="0"
       ns1:inkscapeversion="1.1.2"
       ns1:jacobian_sqrt="0.802219"
       style="fill:#4d4d4d;stroke-width:0"
       id="g10504">
      <defs
         id="id-b5711e19-35a9-401e-9f6b-d2228064ee44"
         style="fill:#4d4d4d;stroke-width:0">
        <g
           id="id-fd1edca9-fd69-4348-b256-019d3b6d17be"
           style="fill:#4d4d4d;stroke-width:0">
          <symbol
             overflow="visible"
             id="id-4f99d3bb-fbf1-4281-bccc-17df830f79fe"
             style="fill:#4d4d4d;stroke-width:0">
            <path
               style="fill:#4d4d4d;stroke:#4d4d4d;stroke-width:0"
               d=""
               id="id-8a770145-b556-4873-8d1c-c30b40da10b9" />
          </symbol>
          <symbol
             overflow="visible"
             id="id-c38a0152-c402-4b3a-a58e-803249effa4a"
             style="fill:#4d4d4d;stroke-width:0">
            <path
               style="fill:#4d4d4d;stroke:#4d4d4d;stroke-width:0"
               d="m 1.328125,-0.828125 c 0.53125,-0.578125 0.828125,-0.828125 1.1875,-1.140625 0,0 0.609375,-0.53125 0.96875,-0.890625 C 4.4375,-3.78125 4.65625,-4.265625 4.65625,-4.3125 c 0,-0.09375 -0.09375,-0.09375 -0.109375,-0.09375 -0.078125,0 -0.09375,0.015625 -0.15625,0.109375 -0.296875,0.484375 -0.5,0.640625 -0.734375,0.640625 -0.25,0 -0.359375,-0.15625 -0.515625,-0.328125 -0.1875,-0.21875 -0.359375,-0.421875 -0.6875,-0.421875 -0.75,0 -1.203125,0.921875 -1.203125,1.140625 0,0.046875 0.03125,0.109375 0.109375,0.109375 0.09375,0 0.109375,-0.046875 0.140625,-0.109375 0.1875,-0.46875 0.765625,-0.46875 0.84375,-0.46875 0.203125,0 0.390625,0.0625 0.625,0.140625 0.40625,0.15625 0.515625,0.15625 0.765625,0.15625 -0.359375,0.421875 -1.1875,1.140625 -1.375,1.296875 l -0.90625,0.84375 C 0.78125,-0.625 0.421875,-0.0625 0.421875,0.015625 c 0,0.09375 0.109375,0.09375 0.125,0.09375 0.078125,0 0.09375,-0.015625 0.15625,-0.125 0.234375,-0.359375 0.53125,-0.625 0.859375,-0.625 0.21875,0 0.328125,0.09375 0.578125,0.375 0.15625,0.21875 0.34375,0.375 0.625,0.375 1,0 1.578125,-1.265625 1.578125,-1.53125 0,-0.046875 -0.046875,-0.109375 -0.125,-0.109375 -0.09375,0 -0.109375,0.0625 -0.140625,0.140625 C 3.84375,-0.75 3.203125,-0.5625 2.875,-0.5625 c -0.1875,0 -0.375,-0.0625 -0.578125,-0.125 -0.34375,-0.125 -0.5,-0.171875 -0.703125,-0.171875 -0.015625,0 -0.171875,0 -0.265625,0.03125 z m 0,0"
               id="id-e3380680-2078-46dd-8227-b0d55cb99000" />
          </symbol>
        </g>
      </defs>
      <g
         id="id-39b769a2-c671-4fd5-9224-088321f3ec7f"
         transform="translate(-149.134,-130.359)"
         style="fill:#4d4d4d;stroke-width:0">
        <g
           style="fill:#4d4d4d;fill-opacity:1;stroke-width:0"
           id="id-b7f41997-30fe-4e51-a78b-f89636217d77">
          <g
             transform="translate(148.712,134.765)"
             style="fill:#4d4d4d;stroke-width:0"
             id="g10586">
            <path
               style="fill:#4d4d4d;stroke:#4d4d4d;stroke-width:0"
               d="m 1.328125,-0.828125 c 0.53125,-0.578125 0.828125,-0.828125 1.1875,-1.140625 0,0 0.609375,-0.53125 0.96875,-0.890625 C 4.4375,-3.78125 4.65625,-4.265625 4.65625,-4.3125 c 0,-0.09375 -0.09375,-0.09375 -0.109375,-0.09375 -0.078125,0 -0.09375,0.015625 -0.15625,0.109375 -0.296875,0.484375 -0.5,0.640625 -0.734375,0.640625 -0.25,0 -0.359375,-0.15625 -0.515625,-0.328125 -0.1875,-0.21875 -0.359375,-0.421875 -0.6875,-0.421875 -0.75,0 -1.203125,0.921875 -1.203125,1.140625 0,0.046875 0.03125,0.109375 0.109375,0.109375 0.09375,0 0.109375,-0.046875 0.140625,-0.109375 0.1875,-0.46875 0.765625,-0.46875 0.84375,-0.46875 0.203125,0 0.390625,0.0625 0.625,0.140625 0.40625,0.15625 0.515625,0.15625 0.765625,0.15625 -0.359375,0.421875 -1.1875,1.140625 -1.375,1.296875 l -0.90625,0.84375 C 0.78125,-0.625 0.421875,-0.0625 0.421875,0.015625 c 0,0.09375 0.109375,0.09375 0.125,0.09375 0.078125,0 0.09375,-0.015625 0.15625,-0.125 0.234375,-0.359375 0.53125,-0.625 0.859375,-0.625 0.21875,0 0.328125,0.09375 0.578125,0.375 0.15625,0.21875 0.34375,0.375 0.625,0.375 1,0 1.578125,-1.265625 1.578125,-1.53125 0,-0.046875 -0.046875,-0.109375 -0.125,-0.109375 -0.09375,0 -0.109375,0.0625 -0.140625,0.140625 C 3.84375,-0.75 3.203125,-0.5625 2.875,-0.5625 c -0.1875,0 -0.375,-0.0625 -0.578125,-0.125 -0.34375,-0.125 -0.5,-0.171875 -0.703125,-0.171875 -0.015625,0 -0.171875,0 -0.265625,0.03125 z m 0,0"
               id="id-e3efc223-0742-40ee-b8aa-c9940841f45c" />
          </g>
        </g>
      </g>
    </g>
    <g
       transform="matrix(0.802219,0,0,0.802219,49.025574,88.473307)"
       ns1:version="1.8.1"
       ns1:texconverter="pdflatex"
       ns1:pdfconverter="inkscape"
       ns1:text="$y$"
       ns1:preamble="/home/jaabell/.config/inkscape/extensions/textext/default_packages.tex"
       ns1:scale="2.2740046718895663"
       ns1:alignment="middle center"
       ns1:stroke-to-path="0"
       ns1:inkscapeversion="1.1.2"
       ns1:jacobian_sqrt="0.802219"
       style="fill:#4d4d4d;stroke-width:0"
       id="g10482">
      <defs
         id="id-44722fff-b94d-4f33-9cd7-621fe1cdcdac"
         style="fill:#4d4d4d;stroke-width:0">
        <g
           id="id-8566eeb4-8f1a-44ad-8c8e-d55a13aeb25a"
           style="fill:#4d4d4d;stroke-width:0">
          <symbol
             overflow="visible"
             id="id-98554b20-5200-46ff-ac14-d7c072b0680b"
             style="fill:#4d4d4d;stroke-width:0">
            <path
               style="fill:#4d4d4d;stroke:#4d4d4d;stroke-width:0"
               d=""
               id="id-91f428ba-2fbc-4104-ba6c-cf4e98c39954" />
          </symbol>
          <symbol
             overflow="visible"
             id="id-f5a9c073-66cc-42e9-a523-f476ef9ed96b"
             style="fill:#4d4d4d;stroke-width:0">
            <path
               style="fill:#4d4d4d;stroke:#4d4d4d;stroke-width:0"
               d="m 4.84375,-3.796875 c 0.046875,-0.140625 0.046875,-0.15625 0.046875,-0.234375 0,-0.171875 -0.140625,-0.265625 -0.296875,-0.265625 -0.09375,0 -0.25,0.0625 -0.34375,0.203125 -0.015625,0.0625 -0.109375,0.359375 -0.140625,0.546875 -0.078125,0.25 -0.140625,0.53125 -0.203125,0.796875 l -0.453125,1.796875 c -0.03125,0.140625 -0.46875,0.84375 -1.125,0.84375 -0.5,0 -0.609375,-0.4375 -0.609375,-0.8125 C 1.71875,-1.375 1.890625,-2 2.21875,-2.875 2.375,-3.28125 2.421875,-3.390625 2.421875,-3.59375 c 0,-0.4375 -0.3125,-0.8125 -0.8125,-0.8125 -0.953125,0 -1.3125,1.453125 -1.3125,1.53125 0,0.109375 0.09375,0.109375 0.109375,0.109375 0.109375,0 0.109375,-0.03125 0.15625,-0.1875 0.28125,-0.9375 0.671875,-1.234375 1.015625,-1.234375 0.078125,0 0.25,0 0.25,0.3125 0,0.25 -0.109375,0.515625 -0.171875,0.703125 -0.40625,1.0625 -0.578125,1.625 -0.578125,2.09375 0,0.890625 0.625,1.1875 1.21875,1.1875 0.390625,0 0.71875,-0.171875 1,-0.453125 -0.125,0.515625 -0.25,1.015625 -0.640625,1.546875 -0.265625,0.328125 -0.640625,0.625 -1.09375,0.625 -0.140625,0 -0.59375,-0.03125 -0.765625,-0.421875 0.15625,0 0.296875,0 0.421875,-0.125 C 1.328125,1.203125 1.421875,1.0625 1.421875,0.875 1.421875,0.5625 1.15625,0.53125 1.0625,0.53125 0.828125,0.53125 0.5,0.6875 0.5,1.171875 c 0,0.5 0.4375,0.875 1.0625,0.875 1.015625,0 2.046875,-0.90625 2.328125,-2.03125 z m 0,0"
               id="id-5b039be7-eb9d-406e-9ac7-a4ebee7536c5" />
          </symbol>
        </g>
      </defs>
      <g
         id="id-c72b9224-92c3-430e-a933-aca7091b91b3"
         transform="translate(-149.009,-130.359)"
         style="fill:#4d4d4d;stroke-width:0">
        <g
           style="fill:#4d4d4d;fill-opacity:1;stroke-width:0"
           id="id-8862212f-b0f6-4cf1-8248-d7dca8d67de6">
          <g
             transform="translate(148.712,134.765)"
             style="fill:#4d4d4d;stroke-width:0"
             id="g10703">
            <path
               style="fill:#4d4d4d;stroke:#4d4d4d;stroke-width:0"
               d="m 4.84375,-3.796875 c 0.046875,-0.140625 0.046875,-0.15625 0.046875,-0.234375 0,-0.171875 -0.140625,-0.265625 -0.296875,-0.265625 -0.09375,0 -0.25,0.0625 -0.34375,0.203125 -0.015625,0.0625 -0.109375,0.359375 -0.140625,0.546875 -0.078125,0.25 -0.140625,0.53125 -0.203125,0.796875 l -0.453125,1.796875 c -0.03125,0.140625 -0.46875,0.84375 -1.125,0.84375 -0.5,0 -0.609375,-0.4375 -0.609375,-0.8125 C 1.71875,-1.375 1.890625,-2 2.21875,-2.875 2.375,-3.28125 2.421875,-3.390625 2.421875,-3.59375 c 0,-0.4375 -0.3125,-0.8125 -0.8125,-0.8125 -0.953125,0 -1.3125,1.453125 -1.3125,1.53125 0,0.109375 0.09375,0.109375 0.109375,0.109375 0.109375,0 0.109375,-0.03125 0.15625,-0.1875 0.28125,-0.9375 0.671875,-1.234375 1.015625,-1.234375 0.078125,0 0.25,0 0.25,0.3125 0,0.25 -0.109375,0.515625 -0.171875,0.703125 -0.40625,1.0625 -0.578125,1.625 -0.578125,2.09375 0,0.890625 0.625,1.1875 1.21875,1.1875 0.390625,0 0.71875,-0.171875 1,-0.453125 -0.125,0.515625 -0.25,1.015625 -0.640625,1.546875 -0.265625,0.328125 -0.640625,0.625 -1.09375,0.625 -0.140625,0 -0.59375,-0.03125 -0.765625,-0.421875 0.15625,0 0.296875,0 0.421875,-0.125 C 1.328125,1.203125 1.421875,1.0625 1.421875,0.875 1.421875,0.5625 1.15625,0.53125 1.0625,0.53125 0.828125,0.53125 0.5,0.6875 0.5,1.171875 c 0,0.5 0.4375,0.875 1.0625,0.875 1.015625,0 2.046875,-0.90625 2.328125,-2.03125 z m 0,0"
               id="id-972b979a-0993-4dd9-b2c8-e9a8da384628" />
          </g>
        </g>
      </g>
    </g>
    <path
       style="fill:#554400;stroke:#6c5d53;stroke-width:1.05833;stroke-linecap:butt;stroke-linejoin:miter;stroke-miterlimit:4;stroke-dasharray:none;stroke-opacity:1"
       d="M 108.14946,116.43396 97.413208,37.168064"
       id="path10816"
       sodipodi:nodetypes="cc" />
    <path
       style="fill:#554400;stroke:#6c5d53;stroke-width:1.05833;stroke-linecap:butt;stroke-linejoin:miter;stroke-miterlimit:4;stroke-dasharray:none;stroke-opacity:1"
       d="M 138.58797,84.56054 97.413208,37.168064"
       id="path10997"
       sodipodi:nodetypes="cc" />
    <path
       style="fill:#554400;stroke:#6c5d53;stroke-width:1.05833;stroke-linecap:butt;stroke-linejoin:miter;stroke-miterlimit:4;stroke-dasharray:none;stroke-opacity:1"
       d="m 138.58797,84.56054 -30.43851,31.87342"
       id="path11056"
       sodipodi:nodetypes="cc" />
    <path
       style="fill:#554400;stroke:#6c5d53;stroke-width:1.05833;stroke-linecap:butt;stroke-linejoin:miter;stroke-miterlimit:4;stroke-dasharray:1.05833, 1.05833;stroke-dashoffset:0;stroke-opacity:1"
       d="M 138.58798,84.56054 80.344969,85.280844"
       id="path11096"
       sodipodi:nodetypes="cc" />
    <circle
       style="opacity:1;fill:#0055d4;fill-opacity:1;stroke:#000000;stroke-width:1.05833;stroke-miterlimit:4;stroke-dasharray:none;stroke-dashoffset:0;paint-order:markers stroke fill"
       id="circle11812"
       cx="138.58797"
       cy="84.560539"
       r="2.6458333" />
    <text
       xml:space="preserve"
       style="font-style:normal;font-weight:normal;font-size:10.5833px;line-height:1.25;font-family:sans-serif;fill:#000000;fill-opacity:1;stroke:none;stroke-width:0.264583"
       x="99.349648"
       y="127.44983"
       id="text17241"><tspan
         sodipodi:role="line"
         id="tspan17239"
         style="stroke-width:0.264583"
         x="99.349648"
         y="127.44983">1</tspan></text>
    <text
       xml:space="preserve"
       style="font-style:normal;font-weight:normal;font-size:10.5833px;line-height:1.25;font-family:sans-serif;fill:#000000;fill-opacity:1;stroke:none;stroke-width:0.264583"
       x="146.35431"
       y="90.000549"
       id="text19707"><tspan
         sodipodi:role="line"
         id="tspan19705"
         style="stroke-width:0.264583"
         x="146.35431"
         y="90.000549">2</tspan></text>
    <text
       xml:space="preserve"
       style="font-style:normal;font-weight:normal;font-size:10.5833px;line-height:1.25;font-family:sans-serif;fill:#000000;fill-opacity:1;stroke:none;stroke-width:0.264583"
       x="68.432564"
       y="86.75338"
       id="text22659"><tspan
         sodipodi:role="line"
         id="tspan22657"
         style="stroke-width:0.264583"
         x="68.432564"
         y="86.75338">3</tspan></text>
    <text
       xml:space="preserve"
       style="font-style:normal;font-weight:normal;font-size:10.5833px;line-height:1.25;font-family:sans-serif;fill:#000000;fill-opacity:1;stroke:none;stroke-width:0.264583"
       x="88.35247"
       y="29.668278"
       id="text25327"><tspan
         sodipodi:role="line"
         id="tspan25325"
         style="stroke-width:0.264583"
         x="88.35247"
         y="29.668278">4</tspan></text>
    <path
       style="fill:#554400;stroke:#6c5d53;stroke-width:1.05833;stroke-linecap:butt;stroke-linejoin:miter;stroke-miterlimit:4;stroke-dasharray:none;stroke-opacity:1"
       d="M 80.344971,85.280846 97.413208,37.168064"
       id="path30707"
       sodipodi:nodetypes="cc" />
    <path
       style="fill:#554400;stroke:#6c5d53;stroke-width:1.05833;stroke-linecap:butt;stroke-linejoin:miter;stroke-miterlimit:4;stroke-dasharray:none;stroke-opacity:1"
       d="M 80.344971,85.280846 108.14946,116.43396"
       id="path30728"
       sodipodi:nodetypes="cc" />
    <circle
       style="opacity:1;fill:#0055d4;fill-opacity:1;stroke:#000000;stroke-width:1.05833;stroke-miterlimit:4;stroke-dasharray:none;stroke-dashoffset:0;paint-order:markers stroke fill"
       id="circle11816"
       cx="80.344971"
       cy="85.280846"
       r="2.6458333" />
    <circle
       style="opacity:1;fill:#0055d4;fill-opacity:1;stroke:#000000;stroke-width:1.05833;stroke-miterlimit:4;stroke-dasharray:none;stroke-dashoffset:0;paint-order:markers stroke fill"
       id="circle11814"
       cx="97.413208"
       cy="37.168064"
       r="2.6458333" />
    <circle
       style="opacity:1;fill:#0055d4;fill-opacity:1;stroke:#000000;stroke-width:1.05833;stroke-miterlimit:4;stroke-dasharray:none;stroke-dashoffset:0;paint-order:markers stroke fill"
       id="path11462"
       cx="108.14946"
       cy="116.43396"
       r="2.6458333" />
    <circle
       style="opacity:1;fill:#f4d7d7;fill-opacity:1;stroke:#800000;stroke-width:1.05833;stroke-miterlimit:4;stroke-dasharray:none;stroke-dashoffset:0;paint-order:markers stroke fill"
       id="circle31856"
       cx="107.44324"
       cy="77.550774"
       r="1.5104352" />
    <text
       xml:space="preserve"
       style="font-style:normal;font-weight:normal;font-size:7.21509px;line-height:1.25;font-family:sans-serif;fill:#000000;fill-opacity:1;stroke:none;stroke-width:0.264583"
       x="141.25357"
       y="119.03378"
       id="text37328"><tspan
         sodipodi:role="line"
         id="tspan37326"
         style="stroke-width:0.264583"
         x="141.25357"
         y="119.03378">single Gauss point</tspan></text>
    <path
       style="fill:none;stroke:#000080;stroke-width:0.529167;stroke-linecap:butt;stroke-linejoin:miter;stroke-miterlimit:4;stroke-dasharray:none;stroke-opacity:1;marker-end:url(#marker37530)"
       d="M 139.56214,116.91701 C 119.9631,115.4504 127.82623,99.491651 110.26555,80.021162"
       id="path37526"
       sodipodi:nodetypes="cc" />
  </g>
</svg>
